<svg xmlns="http://www.w3.org/2000/svg" viewBox="0 0 640 640">
    <path
        d="
        M96 176
        C96 149.5 117.5 128 144 128
        C170.5 128 192 149.5 192 176
        L192 288
        L448 288
        L448 176
        C448 149.5 469.5 128 496 128
        C522.5 128 544 149.5 544 176
        L544 192
        L560 192
        C586.5 192 608 213.5 608 240
        L608 288
        C625.7 288 640 302.3 640 320
        C640 337.7 625.7 352 608 352
        L608 400
        C608 426.5 586.5 448 560 448
        L544 448
        L544 464
        C544 490.5 522.5 512 496 512
        C469.5 512 448 490.5 448 464
        L448 352
        L192 352
        L192 464
        C192 490.5 170.5 512 144 512
        C117.5 512 96 490.5 96 464
        L96 448
        L80 448
        C53.5 448 32 426.5 32 400
        L32 352
        C14.3 352 0 337.7 0 320
        C0 302.3 14.3 288 32 288
        L32 240
        C32 213.5 53.5 192 80 192
        L96 192
        L96 176
        Z
        
  
    "
        fill="#3596ed" />
</svg>